<svg width="128" height="128" viewBox="0 0 128 128" fill="none" xmlns="http://www.w3.org/2000/svg">
<g filter="url(#filter0_f_1_4286)">
<path d="M38.5664 40.7637C38.5664 36.8977 41.7004 33.7637 45.5664 33.7637C49.4324 33.7637 52.5664 36.8977 52.5664 40.7637V44.7637C52.5664 48.6297 49.4324 51.7637 45.5664 51.7637C41.7004 51.7637 38.5664 48.6297 38.5664 44.7637V40.7637Z" fill="#FFFFE7"/>
</g>
<path d="M41.2055 38.6887C42.5133 34.9946 46.5783 33.0313 50.2848 34.3035C53.9913 35.5757 55.9358 39.6016 54.6279 43.2957L52.7852 48.5003C52.4166 49.5416 51.2708 50.095 50.2261 49.7364L40.587 46.428C39.5422 46.0694 38.9941 44.9346 39.3628 43.8933L41.2055 38.6887Z" fill="url(#paint0_linear_1_4286)"/>
<g filter="url(#filter1_f_1_4286)">
<path d="M32.8096 42.0696C33.8976 37.7209 38.3122 35.0475 42.67 36.0985C47.0278 37.1494 49.6786 41.5267 48.5906 45.8754L46.716 53.3683C45.6281 57.717 41.2134 60.3904 36.8556 59.3394C32.4978 58.2885 29.8471 53.9112 30.935 49.5625L32.8096 42.0696Z" fill="url(#paint1_linear_1_4286)"/>
</g>
<g style="mix-blend-mode:luminosity">
<path d="M34.3178 40.6281C36.3717 36.6571 41.2802 35.0551 45.2812 37.0499C49.2822 39.0448 50.8606 43.8811 48.8067 47.8521L45.2079 54.8099C43.154 58.7809 38.2455 60.3829 34.2445 58.388C30.2435 56.3932 28.665 51.5569 30.719 47.5859L34.3178 40.6281Z" fill="url(#paint2_linear_1_4286)"/>
</g>
<g filter="url(#filter2_f_1_4286)">
<path d="M42.5443 37.7991C43.7184 36.8055 45.4757 36.9518 46.4693 38.1259L49.3924 41.5801C50.3851 42.7531 50.2389 44.5087 49.0658 45.5014C48.1442 46.2814 46.8247 46.3779 45.7993 45.7404L43 44L41.7653 40.9786C41.3089 39.8619 41.6234 38.5784 42.5443 37.7991Z" fill="white"/>
</g>
<path d="M94.4844 80.375H71.5156C70.1285 80.375 69 81.5035 69 82.8906V97.1094C69 98.4965 70.1285 99.625 71.5156 99.625H94.4844C95.8715 99.625 97 98.4965 97 97.1094V82.8906C97 81.5035 95.8715 80.375 94.4844 80.375ZM77.75 88.0312C77.75 89.1169 76.8669 90 75.7812 90H74.4688C73.3831 90 72.5 89.1169 72.5 88.0312V86.7188C72.5 85.6331 73.3831 84.75 74.4688 84.75H75.7812C76.8669 84.75 77.75 85.6331 77.75 86.7188V88.0312ZM88.9992 92.4998C88.8095 92.4998 88.6185 92.4384 88.458 92.3119C88.0786 92.0127 88.0134 91.4626 88.3126 91.083C88.5579 90.772 88.6875 90.3974 88.6875 90C88.6875 89.6026 88.5579 89.228 88.3126 88.9169C88.0134 88.5374 88.0786 87.9872 88.4581 87.688C88.8376 87.3889 89.3878 87.454 89.687 87.8335C90.171 88.4475 90.4375 89.2169 90.4375 90C90.4375 90.7831 90.171 91.5525 89.6869 92.1664C89.5143 92.3855 89.258 92.4998 88.9992 92.4998ZM91.8232 94.3813C91.6504 94.5739 91.4115 94.672 91.1717 94.672C90.9635 94.672 90.7546 94.5981 90.5875 94.4482C90.2279 94.1255 90.1979 93.5722 90.5207 93.2126C91.3134 92.3291 91.75 91.1882 91.75 90C91.75 88.8118 91.3134 87.6709 90.5207 86.7874C90.1979 86.4278 90.2279 85.8745 90.5875 85.5518C90.9472 85.2291 91.5004 85.259 91.8232 85.6187C92.9045 86.8236 93.5 88.3797 93.5 90C93.5 91.6203 92.9045 93.1764 91.8232 94.3813Z" fill="#4646AF"/>
<mask id="mask0_1_4286" style="mask-type:alpha" maskUnits="userSpaceOnUse" x="26" y="64" width="32" height="34">
<path d="M37 66.4997C37 70.8997 40 76.6664 41.5 78.9997C42.5 80.4997 44.8 83.7996 46 84.9996C47.2 86.1996 53.8333 89.1663 57 90.4996L56 91.9996L50 95.9996L41 96.4996L32 91.4996L27.5 76.9997C30.6667 71.6664 37 62.0997 37 66.4997Z" fill="white" stroke="black"/>
</mask>
<g mask="url(#mask0_1_4286)">
<circle cx="44.5" cy="79.8125" r="12.5" stroke="#050121" stroke-width="4" stroke-dasharray="2.61 2.61"/>
</g>
<rect x="58" y="70" width="9" height="9" fill="#ED392D"/>
<g filter="url(#filter3_biiii_1_4286)">
<circle cx="64" cy="64.3125" r="27" fill="white" fill-opacity="0.2"/>
</g>
<mask id="mask1_1_4286" style="mask-type:alpha" maskUnits="userSpaceOnUse" x="37" y="37" width="54" height="55">
<circle cx="64" cy="64.3125" r="27" fill="white" fill-opacity="0.2"/>
</mask>
<g mask="url(#mask1_1_4286)">
<circle cx="83" cy="38" r="20" stroke="#4646AF" stroke-width="1.75" stroke-linecap="round" stroke-linejoin="round" stroke-dasharray="3.5 3.5"/>
<circle cx="44.5" cy="79.8125" r="12.5" stroke="white" stroke-width="4" stroke-dasharray="2.61 2.61"/>
</g>
<rect x="51.875" y="50.875" width="6.25" height="6.25" stroke="#050121" stroke-width="3.75" stroke-dasharray="3.75 3.75"/>
<g filter="url(#filter4_f_1_4286)">
<path d="M74 44.9297H91.0193V47.2671H74V44.9297Z" fill="#A9CFFF"/>
</g>
<g filter="url(#filter5_f_1_4286)">
<path d="M76.1833 48.6758H93.2026V51.0132H76.1833V48.6758Z" fill="#A9CFFF"/>
</g>
<g filter="url(#filter6_biii_1_4286)">
<path d="M74 43.9297C74 43.3774 74.4477 42.9297 75 42.9297H90.0192C90.5715 42.9297 91.0193 43.3774 91.0193 43.9297V44.2671C91.0193 44.8194 90.5715 45.2671 90.0193 45.2671H75C74.4477 45.2671 74 44.8194 74 44.2671V43.9297Z" fill="white" fill-opacity="0.2"/>
</g>
<g filter="url(#filter7_biii_1_4286)">
<path d="M76.1833 47.6758C76.1833 47.1235 76.6311 46.6758 77.1833 46.6758H92.2026C92.7549 46.6758 93.2026 47.1235 93.2026 47.6758V48.0132C93.2026 48.5655 92.7549 49.0132 92.2026 49.0132H77.1834C76.6311 49.0132 76.1833 48.5655 76.1833 48.0132V47.6758Z" fill="white" fill-opacity="0.2"/>
</g>
<g filter="url(#filter8_biii_1_4286)">
<path d="M83.6013 41.5235C88.1571 41.5235 91.863 37.8176 91.863 33.2618C91.863 28.7064 88.1571 25 83.6013 25C79.0455 25 75.3395 28.7064 75.3395 33.2618C75.3395 37.8176 79.0455 41.5235 83.6013 41.5235ZM78.6966 34.1407H79.9624C79.9235 33.8654 79.9033 33.584 79.9033 33.2979C79.9033 32.9869 79.9272 32.6816 79.9727 32.3833H78.6966V30.9764H80.3713C81.2802 28.8218 83.4142 27.3056 85.8956 27.3056V28.7125C84.2138 28.7125 82.7407 29.6229 81.9429 30.9764H84.656V32.3833H81.4022C81.3417 32.6788 81.3103 32.9851 81.3103 33.2979C81.3103 33.5858 81.337 33.8672 81.3881 34.1407H84.656V35.5476H81.9012C82.6886 36.941 84.1842 37.8837 85.8956 37.8837V39.2907C83.387 39.2907 81.2329 37.7406 80.3418 35.5476H78.6966V34.1407Z" fill="white" fill-opacity="0.2"/>
</g>
<rect x="57" y="71" width="4" height="4" fill="#ED392D"/>
<defs>
<filter id="filter0_f_1_4286" x="30.5664" y="25.7637" width="30" height="34" filterUnits="userSpaceOnUse" color-interpolation-filters="sRGB">
<feFlood flood-opacity="0" result="BackgroundImageFix"/>
<feBlend mode="normal" in="SourceGraphic" in2="BackgroundImageFix" result="shape"/>
<feGaussianBlur stdDeviation="4" result="effect1_foregroundBlur_1_4286"/>
</filter>
<filter id="filter1_f_1_4286" x="24.6909" y="29.8699" width="30.1438" height="35.6981" filterUnits="userSpaceOnUse" color-interpolation-filters="sRGB">
<feFlood flood-opacity="0" result="BackgroundImageFix"/>
<feBlend mode="normal" in="SourceGraphic" in2="BackgroundImageFix" result="shape"/>
<feGaussianBlur stdDeviation="3" result="effect1_foregroundBlur_1_4286"/>
</filter>
<filter id="filter2_f_1_4286" x="40.5582" y="36.14" width="10.4927" height="11.02" filterUnits="userSpaceOnUse" color-interpolation-filters="sRGB">
<feFlood flood-opacity="0" result="BackgroundImageFix"/>
<feBlend mode="normal" in="SourceGraphic" in2="BackgroundImageFix" result="shape"/>
<feGaussianBlur stdDeviation="0.5" result="effect1_foregroundBlur_1_4286"/>
</filter>
<filter id="filter3_biiii_1_4286" x="33" y="33.3125" width="62" height="62" filterUnits="userSpaceOnUse" color-interpolation-filters="sRGB">
<feFlood flood-opacity="0" result="BackgroundImageFix"/>
<feGaussianBlur in="BackgroundImageFix" stdDeviation="2"/>
<feComposite in2="SourceAlpha" operator="in" result="effect1_backgroundBlur_1_4286"/>
<feBlend mode="normal" in="SourceGraphic" in2="effect1_backgroundBlur_1_4286" result="shape"/>
<feColorMatrix in="SourceAlpha" type="matrix" values="0 0 0 0 0 0 0 0 0 0 0 0 0 0 0 0 0 0 127 0" result="hardAlpha"/>
<feOffset dy="1"/>
<feGaussianBlur stdDeviation="2"/>
<feComposite in2="hardAlpha" operator="arithmetic" k2="-1" k3="1"/>
<feColorMatrix type="matrix" values="0 0 0 0 1 0 0 0 0 1 0 0 0 0 1 0 0 0 0.3 0"/>
<feBlend mode="normal" in2="shape" result="effect2_innerShadow_1_4286"/>
<feColorMatrix in="SourceAlpha" type="matrix" values="0 0 0 0 0 0 0 0 0 0 0 0 0 0 0 0 0 0 127 0" result="hardAlpha"/>
<feOffset dy="-1"/>
<feGaussianBlur stdDeviation="2"/>
<feComposite in2="hardAlpha" operator="arithmetic" k2="-1" k3="1"/>
<feColorMatrix type="matrix" values="0 0 0 0 1 0 0 0 0 1 0 0 0 0 1 0 0 0 0.5 0"/>
<feBlend mode="normal" in2="effect2_innerShadow_1_4286" result="effect3_innerShadow_1_4286"/>
<feColorMatrix in="SourceAlpha" type="matrix" values="0 0 0 0 0 0 0 0 0 0 0 0 0 0 0 0 0 0 127 0" result="hardAlpha"/>
<feOffset dy="1"/>
<feGaussianBlur stdDeviation="22"/>
<feComposite in2="hardAlpha" operator="arithmetic" k2="-1" k3="1"/>
<feColorMatrix type="matrix" values="0 0 0 0 1 0 0 0 0 1 0 0 0 0 1 0 0 0 0.45 0"/>
<feBlend mode="normal" in2="effect3_innerShadow_1_4286" result="effect4_innerShadow_1_4286"/>
<feColorMatrix in="SourceAlpha" type="matrix" values="0 0 0 0 0 0 0 0 0 0 0 0 0 0 0 0 0 0 127 0" result="hardAlpha"/>
<feOffset dx="1" dy="1"/>
<feGaussianBlur stdDeviation="1"/>
<feComposite in2="hardAlpha" operator="arithmetic" k2="-1" k3="1"/>
<feColorMatrix type="matrix" values="0 0 0 0 1 0 0 0 0 1 0 0 0 0 1 0 0 0 1 0"/>
<feBlend mode="normal" in2="effect4_innerShadow_1_4286" result="effect5_innerShadow_1_4286"/>
</filter>
<filter id="filter4_f_1_4286" x="70" y="40.9297" width="25.0192" height="10.3375" filterUnits="userSpaceOnUse" color-interpolation-filters="sRGB">
<feFlood flood-opacity="0" result="BackgroundImageFix"/>
<feBlend mode="normal" in="SourceGraphic" in2="BackgroundImageFix" result="shape"/>
<feGaussianBlur stdDeviation="2" result="effect1_foregroundBlur_1_4286"/>
</filter>
<filter id="filter5_f_1_4286" x="72.1833" y="44.6758" width="25.0192" height="10.3375" filterUnits="userSpaceOnUse" color-interpolation-filters="sRGB">
<feFlood flood-opacity="0" result="BackgroundImageFix"/>
<feBlend mode="normal" in="SourceGraphic" in2="BackgroundImageFix" result="shape"/>
<feGaussianBlur stdDeviation="2" result="effect1_foregroundBlur_1_4286"/>
</filter>
<filter id="filter6_biii_1_4286" x="70" y="38.9297" width="25.0192" height="10.3375" filterUnits="userSpaceOnUse" color-interpolation-filters="sRGB">
<feFlood flood-opacity="0" result="BackgroundImageFix"/>
<feGaussianBlur in="BackgroundImageFix" stdDeviation="2"/>
<feComposite in2="SourceAlpha" operator="in" result="effect1_backgroundBlur_1_4286"/>
<feBlend mode="normal" in="SourceGraphic" in2="effect1_backgroundBlur_1_4286" result="shape"/>
<feColorMatrix in="SourceAlpha" type="matrix" values="0 0 0 0 0 0 0 0 0 0 0 0 0 0 0 0 0 0 127 0" result="hardAlpha"/>
<feOffset dy="1"/>
<feGaussianBlur stdDeviation="2"/>
<feComposite in2="hardAlpha" operator="arithmetic" k2="-1" k3="1"/>
<feColorMatrix type="matrix" values="0 0 0 0 1 0 0 0 0 1 0 0 0 0 1 0 0 0 0.3 0"/>
<feBlend mode="normal" in2="shape" result="effect2_innerShadow_1_4286"/>
<feColorMatrix in="SourceAlpha" type="matrix" values="0 0 0 0 0 0 0 0 0 0 0 0 0 0 0 0 0 0 127 0" result="hardAlpha"/>
<feOffset dy="-1"/>
<feGaussianBlur stdDeviation="2"/>
<feComposite in2="hardAlpha" operator="arithmetic" k2="-1" k3="1"/>
<feColorMatrix type="matrix" values="0 0 0 0 1 0 0 0 0 1 0 0 0 0 1 0 0 0 0.5 0"/>
<feBlend mode="normal" in2="effect2_innerShadow_1_4286" result="effect3_innerShadow_1_4286"/>
<feColorMatrix in="SourceAlpha" type="matrix" values="0 0 0 0 0 0 0 0 0 0 0 0 0 0 0 0 0 0 127 0" result="hardAlpha"/>
<feOffset dy="1"/>
<feGaussianBlur stdDeviation="0.5"/>
<feComposite in2="hardAlpha" operator="arithmetic" k2="-1" k3="1"/>
<feColorMatrix type="matrix" values="0 0 0 0 1 0 0 0 0 1 0 0 0 0 1 0 0 0 0.95 0"/>
<feBlend mode="normal" in2="effect3_innerShadow_1_4286" result="effect4_innerShadow_1_4286"/>
</filter>
<filter id="filter7_biii_1_4286" x="72.1833" y="42.6758" width="25.0192" height="10.3375" filterUnits="userSpaceOnUse" color-interpolation-filters="sRGB">
<feFlood flood-opacity="0" result="BackgroundImageFix"/>
<feGaussianBlur in="BackgroundImageFix" stdDeviation="2"/>
<feComposite in2="SourceAlpha" operator="in" result="effect1_backgroundBlur_1_4286"/>
<feBlend mode="normal" in="SourceGraphic" in2="effect1_backgroundBlur_1_4286" result="shape"/>
<feColorMatrix in="SourceAlpha" type="matrix" values="0 0 0 0 0 0 0 0 0 0 0 0 0 0 0 0 0 0 127 0" result="hardAlpha"/>
<feOffset dy="1"/>
<feGaussianBlur stdDeviation="2"/>
<feComposite in2="hardAlpha" operator="arithmetic" k2="-1" k3="1"/>
<feColorMatrix type="matrix" values="0 0 0 0 1 0 0 0 0 1 0 0 0 0 1 0 0 0 0.3 0"/>
<feBlend mode="normal" in2="shape" result="effect2_innerShadow_1_4286"/>
<feColorMatrix in="SourceAlpha" type="matrix" values="0 0 0 0 0 0 0 0 0 0 0 0 0 0 0 0 0 0 127 0" result="hardAlpha"/>
<feOffset dy="-1"/>
<feGaussianBlur stdDeviation="2"/>
<feComposite in2="hardAlpha" operator="arithmetic" k2="-1" k3="1"/>
<feColorMatrix type="matrix" values="0 0 0 0 1 0 0 0 0 1 0 0 0 0 1 0 0 0 0.5 0"/>
<feBlend mode="normal" in2="effect2_innerShadow_1_4286" result="effect3_innerShadow_1_4286"/>
<feColorMatrix in="SourceAlpha" type="matrix" values="0 0 0 0 0 0 0 0 0 0 0 0 0 0 0 0 0 0 127 0" result="hardAlpha"/>
<feOffset dy="1"/>
<feGaussianBlur stdDeviation="0.5"/>
<feComposite in2="hardAlpha" operator="arithmetic" k2="-1" k3="1"/>
<feColorMatrix type="matrix" values="0 0 0 0 1 0 0 0 0 1 0 0 0 0 1 0 0 0 0.95 0"/>
<feBlend mode="normal" in2="effect3_innerShadow_1_4286" result="effect4_innerShadow_1_4286"/>
</filter>
<filter id="filter8_biii_1_4286" x="71.3395" y="21" width="24.5235" height="24.5235" filterUnits="userSpaceOnUse" color-interpolation-filters="sRGB">
<feFlood flood-opacity="0" result="BackgroundImageFix"/>
<feGaussianBlur in="BackgroundImageFix" stdDeviation="2"/>
<feComposite in2="SourceAlpha" operator="in" result="effect1_backgroundBlur_1_4286"/>
<feBlend mode="normal" in="SourceGraphic" in2="effect1_backgroundBlur_1_4286" result="shape"/>
<feColorMatrix in="SourceAlpha" type="matrix" values="0 0 0 0 0 0 0 0 0 0 0 0 0 0 0 0 0 0 127 0" result="hardAlpha"/>
<feOffset dy="1"/>
<feGaussianBlur stdDeviation="2"/>
<feComposite in2="hardAlpha" operator="arithmetic" k2="-1" k3="1"/>
<feColorMatrix type="matrix" values="0 0 0 0 1 0 0 0 0 1 0 0 0 0 1 0 0 0 0.3 0"/>
<feBlend mode="normal" in2="shape" result="effect2_innerShadow_1_4286"/>
<feColorMatrix in="SourceAlpha" type="matrix" values="0 0 0 0 0 0 0 0 0 0 0 0 0 0 0 0 0 0 127 0" result="hardAlpha"/>
<feOffset dy="-1"/>
<feGaussianBlur stdDeviation="2"/>
<feComposite in2="hardAlpha" operator="arithmetic" k2="-1" k3="1"/>
<feColorMatrix type="matrix" values="0 0 0 0 1 0 0 0 0 1 0 0 0 0 1 0 0 0 0.5 0"/>
<feBlend mode="normal" in2="effect2_innerShadow_1_4286" result="effect3_innerShadow_1_4286"/>
<feColorMatrix in="SourceAlpha" type="matrix" values="0 0 0 0 0 0 0 0 0 0 0 0 0 0 0 0 0 0 127 0" result="hardAlpha"/>
<feOffset dy="1"/>
<feGaussianBlur stdDeviation="0.5"/>
<feComposite in2="hardAlpha" operator="arithmetic" k2="-1" k3="1"/>
<feColorMatrix type="matrix" values="0 0 0 0 1 0 0 0 0 1 0 0 0 0 1 0 0 0 0.95 0"/>
<feBlend mode="normal" in2="effect3_innerShadow_1_4286" result="effect4_innerShadow_1_4286"/>
</filter>
<linearGradient id="paint0_linear_1_4286" x1="55.2299" y1="36.0008" x2="30.6156" y2="50.6673" gradientUnits="userSpaceOnUse">
<stop offset="0.0941878" stop-color="#FFE5DC"/>
<stop offset="0.230705" stop-color="#FFFFE7" stop-opacity="0"/>
</linearGradient>
<linearGradient id="paint1_linear_1_4286" x1="49.2281" y1="43.3274" x2="29.6511" y2="40.0258" gradientUnits="userSpaceOnUse">
<stop stop-color="#FFFFE6"/>
<stop offset="0.360807" stop-color="#D5FFFF"/>
<stop offset="0.977083" stop-color="#D5FFFF" stop-opacity="0"/>
</linearGradient>
<linearGradient id="paint2_linear_1_4286" x1="49.9664" y1="46.4707" x2="30.8075" y2="57.9985" gradientUnits="userSpaceOnUse">
<stop offset="0.0153056" stop-color="#D4FFE7"/>
<stop offset="0.312156" stop-color="#D5FFFF" stop-opacity="0"/>
</linearGradient>
</defs>
</svg>
