<svg width="128" height="128" viewBox="0 0 128 128" fill="none" xmlns="http://www.w3.org/2000/svg">
<path d="M42.3104 54.042L41.8609 57.0144C41.8121 57.3375 41.9489 57.6607 42.2135 57.8472C42.4787 58.034 42.825 58.0505 43.1058 57.8913L45.5653 56.4975L48.0591 57.8227C48.6731 58.1538 49.4079 57.6063 49.2805 56.913L48.758 53.9666L50.8052 51.4672C51.261 50.9168 50.8647 50.0604 50.1566 50.0643H47.459L46.2128 47.4796C46.07 47.1832 45.7711 46.9965 45.4464 47.0001C45.1212 47.0035 44.8268 47.1964 44.69 47.4957L43.5162 50.0643H40.8434C40.5161 50.0643 40.2184 50.2564 40.0796 50.5573C39.9408 50.858 39.9861 51.2131 40.1956 51.4682L42.3104 54.042Z" fill="#F84031"/>
<path d="M45.2078 60.5984C45.2078 59.8528 44.6011 59.2461 43.8554 59.2461H36.1446C35.3989 59.2461 34.7922 59.8528 34.7922 60.5984V77H45.2078V60.5984H45.2078Z" fill="#4646AF"/>
<path d="M56.6477 68.1719H47.3172V76.9988H56.6477C57.3933 76.9988 58 76.3922 58 75.6465V69.5243C58 68.7785 57.3933 68.1719 56.6477 68.1719Z" fill="#4646AF"/>
<path d="M32.6829 76.9983V65.7305H23.3524C22.6067 65.7305 22 66.3371 22 67.0828V75.6459C22 76.3917 22.6067 76.9983 23.3523 76.9983H32.6829Z" fill="#4646AF"/>
<path d="M36.0114 49.6785L35.4494 53.3415C35.3883 53.7398 35.5593 54.1381 35.8903 54.3679C36.2218 54.5981 36.6549 54.6185 37.0061 54.4223L40.0817 52.7045L43.2001 54.3377C43.9679 54.7457 44.8867 54.071 44.7274 53.2167L44.074 49.5855L46.6341 46.5053C47.2041 45.827 46.7084 44.7716 45.823 44.7764H42.4497L40.8913 41.5911C40.7127 41.2258 40.339 40.9956 39.933 41.0001C39.5263 41.0044 39.1582 41.242 38.9871 41.6109L37.5193 44.7764H34.177C33.7677 44.7764 33.3954 45.0131 33.2218 45.3839C33.0483 45.7545 33.1049 46.1921 33.3668 46.5065L36.0114 49.6785Z" fill="#4646AF"/>
<rect x="77" y="70" width="9" height="9" fill="#ED392D"/>
<g filter="url(#filter0_f_1_4280)">
<path d="M59.382 78.6773C59.8918 77.0308 63.8999 68.867 67.0007 62.6469C68.9621 58.7124 73.9035 57.3753 77.5988 59.7567C81.3107 62.1489 82.1207 67.2328 79.2989 70.6296C75.131 75.6467 69.758 81.9896 68.2066 83.2506C65.5665 85.3967 62.2792 86.6396 60.6139 85.8474C58.9485 85.0552 58.5367 81.4072 59.382 78.6773Z" fill="#FFE4DB"/>
</g>
<g filter="url(#filter1_f_1_4280)">
<path d="M64.1851 66.2506C63.5991 63.5362 65.3245 60.8605 68.0389 60.2744C70.7534 59.6883 73.4291 61.4137 74.0152 64.1282L76.4071 75.2065C76.9932 77.921 75.2678 80.5966 72.5533 81.1827C69.8388 81.7688 67.1632 80.0434 66.5771 77.3289L64.1851 66.2506Z" fill="#C5EDFE"/>
</g>
<g filter="url(#filter2_f_1_4280)">
<path d="M68.816 65.6485C68.7265 64.3926 69.6722 63.3019 70.9281 63.2125C72.184 63.1231 73.2747 64.0687 73.3641 65.3246L73.9228 73.169C74.0122 74.4249 73.0666 75.5155 71.8107 75.605C70.5547 75.6944 69.4641 74.7488 69.3746 73.4929L68.816 65.6485Z" fill="#D4FFFF"/>
</g>
<g filter="url(#filter3_biiii_1_4280)">
<circle cx="64" cy="64" r="27" fill="white" fill-opacity="0.2"/>
</g>
<g filter="url(#filter4_f_1_4280)">
<path d="M81.5756 91.3005H76.8481V89.4885C78.8035 89.2769 80.6883 88.3343 82.3465 86.7306C85.8862 83.3038 88 77.3674 88 70.8505C88 70.3814 87.6197 70.0004 87.1515 70.0004H83.1536C82.6858 70.0004 82.3055 70.3814 82.3055 70.8505V71.996H69.6947V70.8501C69.6947 70.381 69.3142 70 68.8462 70H64.8487C64.3803 70 64 70.381 64 70.8501C64 77.3674 66.1138 83.3034 69.6533 86.7295C71.3094 88.3328 73.1952 89.2762 75.1506 89.4877V91.2998H70.423C69.9551 91.2998 69.5746 91.6808 69.5746 92.1499C69.5746 92.6193 69.9551 93 70.423 93H81.5748C82.0444 93 82.4233 92.6193 82.4233 92.1499C82.4233 91.6808 82.0453 91.3005 81.5756 91.3005ZM84.0021 71.7001H86.289C86.117 77.207 84.2817 82.3157 81.3984 85.276C81.4161 85.2438 81.4302 85.2076 81.4471 85.175C81.6236 84.8354 81.7916 84.4825 81.9522 84.1122C81.9802 84.0463 82.0072 83.9779 82.0356 83.9113C82.1907 83.5409 82.3388 83.1603 82.4765 82.7637C82.4868 82.7344 82.4979 82.706 82.5075 82.6768C82.65 82.2624 82.7807 81.8315 82.9034 81.3914C82.9277 81.3046 82.9521 81.2192 82.9749 81.1315C83.0924 80.697 83.1994 80.252 83.2962 79.7962C83.3143 79.713 83.3309 79.6292 83.3475 79.5456C83.4436 79.0799 83.531 78.6063 83.6063 78.1219C83.6093 78.1041 83.613 78.0872 83.6148 78.0692C83.6913 77.5742 83.7519 77.0681 83.8061 76.5563C83.8168 76.4599 83.8271 76.3649 83.8371 76.2679C83.8844 75.7694 83.9231 75.2641 83.9498 74.7526C83.9557 74.6568 83.9586 74.5606 83.963 74.4648C83.9866 73.9295 84.0022 73.3909 84.0022 72.8452V71.7001H84.0021ZM65.7104 71.7001H67.9974V72.8456C67.9974 73.3912 68.0129 73.9299 68.0371 74.4652C68.0417 74.561 68.045 74.6572 68.0504 74.753C68.0768 75.2644 68.1146 75.7698 68.163 76.2683C68.1717 76.3652 68.1832 76.4604 68.193 76.5563C68.2474 77.0685 68.309 77.5745 68.3853 78.0696C68.3877 78.0876 68.391 78.1038 68.394 78.1215C68.4689 78.6076 68.5566 79.0812 68.6526 79.5475C68.6692 79.63 68.6847 79.7134 68.7023 79.7948C68.8009 80.2521 68.9079 80.6984 69.0251 81.1336C69.0486 81.2196 69.0714 81.3036 69.0962 81.3881C69.2197 81.83 69.3502 82.2628 69.4927 82.6783C69.5014 82.7049 69.5116 82.7297 69.5215 82.756C69.6605 83.1574 69.8099 83.5429 69.9668 83.9165C69.9933 83.9801 70.0187 84.0456 70.0462 84.1077C70.2077 84.4803 70.3778 84.8369 70.5556 85.1787C70.571 85.209 70.5854 85.2441 70.601 85.2741C67.7164 82.3154 65.8828 77.2066 65.7104 71.7001Z" fill="#A9CFFF"/>
</g>
<path d="M76.4947 87C77.6354 86.8914 78.7349 86.4077 79.7021 85.5848C81.767 83.8265 83 80.7804 83 77.4364C83 77.1957 82.7782 77.0002 82.5051 77.0002H80.1729C79.9001 77.0002 79.6782 77.1957 79.6782 77.4364V78.0242H72.3219V77.4362C72.3219 77.1955 72.0999 77 71.827 77H69.495C69.2218 77 69 77.1955 69 77.4362C69 80.7804 70.233 83.8263 72.2978 85.5843C73.2638 86.407 74.3639 86.891 75.5045 86.9996C75.5045 86.9996 76.3483 86.9996 76.4947 87ZM80.6679 77.8723H82.0019C81.9016 80.6981 80.831 83.3195 79.1491 84.8384C79.1594 84.8219 79.1676 84.8034 79.1775 84.7866C79.2804 84.6124 79.3784 84.4313 79.4721 84.2413C79.4885 84.2075 79.5042 84.1723 79.5208 84.1382C79.6112 83.9482 79.6976 83.7529 79.778 83.5493C79.784 83.5343 79.7904 83.5197 79.796 83.5047C79.8792 83.2921 79.9554 83.071 80.027 82.8452C80.0412 82.8007 80.0554 82.7568 80.0687 82.7118C80.1372 82.4889 80.1997 82.2605 80.2561 82.0267C80.2667 81.984 80.2763 81.941 80.2861 81.8981C80.3421 81.6591 80.3931 81.4161 80.437 81.1675C80.4388 81.1584 80.4409 81.1497 80.442 81.1405C80.4866 80.8865 80.5219 80.6268 80.5536 80.3642C80.5598 80.3147 80.5658 80.266 80.5716 80.2162C80.5992 79.9604 80.6218 79.7011 80.6374 79.4387C80.6408 79.3895 80.6425 79.3402 80.6451 79.291C80.6589 79.0163 80.668 78.7399 80.668 78.4599L80.6679 77.8723ZM69.9977 77.8723H71.3318V78.4601C71.3318 78.7401 71.3408 79.0165 71.355 79.2912C71.3577 79.3404 71.3596 79.3897 71.3627 79.4389C71.3781 79.7013 71.4002 79.9606 71.4284 80.2164C71.4335 80.2661 71.4402 80.315 71.4459 80.3642C71.4777 80.627 71.5136 80.8867 71.5581 81.1407C71.5595 81.1499 71.5614 81.1582 71.5631 81.1673C71.6069 81.4168 71.658 81.6597 71.714 81.899C71.7237 81.9413 71.7327 81.9841 71.743 82.0259C71.8005 82.2606 71.863 82.4896 71.9313 82.7129C71.945 82.757 71.9583 82.8001 71.9728 82.8435C72.0448 83.0702 72.121 83.2923 72.2041 83.5055C72.2092 83.5192 72.2151 83.5319 72.2209 83.5454C72.302 83.7513 72.3891 83.9491 72.4806 84.1409C72.4961 84.1735 72.5109 84.2071 72.5269 84.239C72.6212 84.4301 72.7204 84.6131 72.8241 84.7885C72.8331 84.8041 72.8415 84.8221 72.8506 84.8375C71.1679 83.3193 70.0983 80.6979 69.9977 77.8723Z" fill="#E9E74C"/>
<g filter="url(#filter5_bii_1_4280)">
<path d="M81.5756 93.3005H76.8481V91.4885C78.8035 91.2769 80.6883 90.3343 82.3465 88.7306C85.8862 85.3038 88 79.3674 88 72.8505C88 72.3814 87.6197 72.0004 87.1515 72.0004H83.1536C82.6858 72.0004 82.3055 72.3814 82.3055 72.8505V73.996H69.6947V72.8501C69.6947 72.381 69.3142 72 68.8462 72H64.8487C64.3803 72 64 72.381 64 72.8501C64 79.3674 66.1138 85.3034 69.6533 88.7295C71.3094 90.3328 73.1952 91.2762 75.1506 91.4877V93.2998H70.423C69.9551 93.2998 69.5746 93.6808 69.5746 94.1499C69.5746 94.6193 69.9551 95 70.423 95H81.5748C82.0444 95 82.4233 94.6193 82.4233 94.1499C82.4233 93.6808 82.0453 93.3005 81.5756 93.3005ZM84.0021 73.7001H86.289C86.117 79.207 84.2817 84.3157 81.3984 87.276C81.4161 87.2438 81.4302 87.2076 81.4471 87.175C81.6236 86.8354 81.7916 86.4825 81.9522 86.1122C81.9802 86.0463 82.0072 85.9779 82.0356 85.9113C82.1907 85.5409 82.3388 85.1603 82.4765 84.7637C82.4868 84.7344 82.4979 84.706 82.5075 84.6768C82.65 84.2624 82.7807 83.8315 82.9034 83.3914C82.9277 83.3046 82.9521 83.2192 82.9749 83.1315C83.0924 82.697 83.1994 82.252 83.2962 81.7962C83.3143 81.713 83.3309 81.6292 83.3475 81.5456C83.4436 81.0799 83.531 80.6063 83.6063 80.1219C83.6093 80.1041 83.613 80.0872 83.6148 80.0692C83.6913 79.5742 83.7519 79.0681 83.8061 78.5563C83.8168 78.4599 83.8271 78.3649 83.8371 78.2679C83.8844 77.7694 83.9231 77.2641 83.9498 76.7526C83.9557 76.6568 83.9586 76.5606 83.963 76.4648C83.9866 75.9295 84.0022 75.3909 84.0022 74.8452V73.7001H84.0021ZM65.7104 73.7001H67.9974V74.8456C67.9974 75.3912 68.0129 75.9299 68.0371 76.4652C68.0417 76.561 68.045 76.6572 68.0504 76.753C68.0768 77.2644 68.1146 77.7698 68.163 78.2683C68.1717 78.3652 68.1832 78.4604 68.193 78.5563C68.2474 79.0685 68.309 79.5745 68.3853 80.0696C68.3877 80.0876 68.391 80.1038 68.394 80.1215C68.4689 80.6076 68.5566 81.0812 68.6526 81.5475C68.6692 81.63 68.6847 81.7134 68.7023 81.7948C68.8009 82.2521 68.9079 82.6984 69.0251 83.1336C69.0486 83.2196 69.0714 83.3036 69.0962 83.3881C69.2197 83.83 69.3502 84.2628 69.4927 84.6783C69.5014 84.7049 69.5116 84.7297 69.5215 84.756C69.6605 85.1574 69.8099 85.5429 69.9668 85.9165C69.9933 85.9801 70.0187 86.0456 70.0462 86.1077C70.2077 86.4803 70.3778 86.8369 70.5556 87.1787C70.571 87.209 70.5854 87.2441 70.601 87.2741C67.7164 84.3154 65.8828 79.2066 65.7104 73.7001Z" fill="white" fill-opacity="0.2"/>
</g>
<g filter="url(#filter6_f_1_4280)">
<path d="M84.5664 32.7637C84.5664 28.8977 87.7004 25.7637 91.5664 25.7637C95.4324 25.7637 98.5664 28.8977 98.5664 32.7637V36.7637C98.5664 40.6297 95.4324 43.7637 91.5664 43.7637C87.7004 43.7637 84.5664 40.6297 84.5664 36.7637V32.7637Z" fill="#FFFFE7"/>
</g>
<path d="M87.2055 30.6887C88.5133 26.9946 92.5783 25.0313 96.2848 26.3035C99.9913 27.5757 101.936 31.6016 100.628 35.2957L98.7852 40.5003C98.4166 41.5416 97.2708 42.095 96.2261 41.7364L86.587 38.428C85.5422 38.0694 84.9941 36.9346 85.3628 35.8933L87.2055 30.6887Z" fill="url(#paint0_linear_1_4280)"/>
<g filter="url(#filter7_f_1_4280)">
<path d="M78.8096 34.0696C79.8976 29.7209 84.3122 27.0475 88.67 28.0985C93.0278 29.1494 95.6786 33.5267 94.5906 37.8754L92.716 45.3683C91.6281 49.717 87.2134 52.3904 82.8556 51.3394C78.4978 50.2885 75.8471 45.9112 76.935 41.5625L78.8096 34.0696Z" fill="url(#paint1_linear_1_4280)"/>
</g>
<g style="mix-blend-mode:luminosity">
<path d="M80.3178 32.6281C82.3717 28.6571 87.2802 27.0551 91.2812 29.0499C95.2822 31.0448 96.8606 35.8811 94.8067 39.8521L91.2079 46.8099C89.154 50.7809 84.2455 52.3829 80.2445 50.388C76.2435 48.3932 74.665 43.5569 76.719 39.5859L80.3178 32.6281Z" fill="url(#paint2_linear_1_4280)"/>
</g>
<g filter="url(#filter8_f_1_4280)">
<path d="M88.5443 29.7991C89.7184 28.8055 91.4757 28.9518 92.4693 30.1259L95.3924 33.5801C96.3851 34.7531 96.2389 36.5087 95.0658 37.5014C94.1442 38.2814 92.8247 38.3779 91.7993 37.7404L89 36L87.7653 32.9786C87.3089 31.8619 87.6234 30.5784 88.5443 29.7991Z" fill="white"/>
</g>
<path d="M46 51H54" stroke="white" stroke-width="2" stroke-dasharray="4 4"/>
<path d="M54 82H62" stroke="url(#paint3_linear_1_4280)" stroke-width="2" stroke-dasharray="4 4"/>
<circle cx="89.8361" cy="73.8361" r="7.66419" transform="rotate(7.45291 89.8361 73.8361)" stroke="#050121" stroke-width="4" stroke-dasharray="2.61 2.61"/>
<rect x="41" y="80" width="6" height="7" stroke="#050121" stroke-width="2" stroke-dasharray="4 4"/>
<path d="M87.6031 40.4399C87.1731 40 86.6034 40.0002 85.6632 40H85.6488C83.2253 40 79.6634 41.0941 77.1692 43.5384C77.1669 43.5407 77.1647 43.5428 77.1625 43.5451L76.6668 44.0428L70.209 44.7205C68.9667 44.8508 68.0338 45.8942 68.039 47.1474C68.0407 47.5499 68.0421 48.2885 68.0421 48.2886C68.0428 48.6767 68.3283 49.0052 68.7124 49.0601C68.7368 49.0635 70.9852 49.3989 72.4121 50.6991L71.3833 53.1246C71.26 53.4155 71.3241 53.7521 71.5457 53.9771L73.9662 56.4367C74.1162 56.5891 74.3177 56.6699 74.5228 56.6699C74.6315 56.6699 74.741 56.6471 74.8442 56.6004L77.1965 55.537C78.1196 56.6361 78.7892 58.6444 78.986 59.4026C79.0726 59.7377 79.3694 59.9759 79.7153 59.9876C79.7377 59.9885 80.0826 60 80.4529 60C80.6642 60 80.8836 59.9961 81.0561 59.9846C82.2385 59.9043 83.1859 58.9936 83.3087 57.8193L83.9839 51.3636C83.9861 51.3427 83.9867 51.3219 83.9873 51.3013L84.4258 50.8683C84.4291 50.8652 84.4319 50.8622 84.435 50.8591C86.9185 48.3249 88.0303 44.7948 88.0303 42.4204C88.0303 41.4578 88.0303 40.8768 87.6031 40.4399ZM69.6006 47.141C69.5989 46.7504 69.8634 46.3269 70.3719 46.2735L74.9209 45.7962L72.1252 48.6037C71.1793 48.0837 70.2197 47.7955 69.6021 47.6481C69.6017 47.4686 69.6011 47.2838 69.6006 47.141ZM74.6972 54.9532L73.0247 53.2539L73.6138 51.8647L76.0615 54.3365L74.6972 54.9532ZM81.7557 57.657C81.704 58.1518 81.3019 58.4028 80.9503 58.4266C80.7893 58.4376 80.5542 58.4397 80.3305 58.4381C80.1425 57.8402 79.798 56.8647 79.3019 55.9265L82.2399 53.0262L81.7557 57.657ZM83.3242 49.7617L78.4718 54.5515L73.4533 49.4831L78.2657 44.6504C80.4334 42.5281 83.6119 41.5616 85.6488 41.5616H85.6632C85.963 41.5621 86.2676 41.5616 86.4492 41.5776C86.4687 41.778 86.4687 42.1268 86.4687 42.4205C86.4687 44.4095 85.4847 47.5544 83.3242 49.7617ZM71.5367 56.4446C71.8443 56.7468 71.8487 57.2412 71.5466 57.5488L69.3798 59.7546C69.2271 59.9102 69.0249 59.9882 68.8229 59.9882C68.6253 59.9882 68.4277 59.9138 68.2757 59.7644C67.9681 59.4622 67.9636 58.9679 68.2658 58.6602L70.4325 56.4546C70.7348 56.1469 71.229 56.1425 71.5367 56.4446ZM68.2708 55.7775C67.9659 55.4725 67.9659 54.9783 68.2708 54.6732L68.9735 53.9706C69.2783 53.6657 69.7727 53.6657 70.0777 53.9706C70.3826 54.2756 70.3826 54.7698 70.0777 55.0749L69.3749 55.7775C69.2225 55.93 69.0226 56.0063 68.8229 56.0063C68.623 56.0063 68.4232 55.93 68.2708 55.7775ZM74.0597 57.9527C74.3646 58.2576 74.3646 58.7519 74.0597 59.0568L73.357 59.7595C73.2046 59.9119 73.0047 59.9882 72.8048 59.9882C72.6051 59.9882 72.4052 59.9119 72.2528 59.7595C71.9479 59.4546 71.9479 58.9602 72.2528 58.6554L72.9554 57.9527C73.2605 57.6477 73.7548 57.6477 74.0597 57.9527ZM79.7784 50.2418C80.0833 50.5466 80.0833 51.041 79.7784 51.3459C79.626 51.4985 79.4261 51.5746 79.2262 51.5746C79.0265 51.5746 78.8266 51.4985 78.6742 51.3459L76.6832 49.3549C76.3783 49.05 76.3783 48.5557 76.6832 48.2508C76.988 47.9458 77.4824 47.9458 77.7873 48.2508L79.7784 50.2418ZM83.8506 45.4911C84.1599 45.7915 84.1671 46.2859 83.8666 46.5952C83.7136 46.7527 83.51 46.8319 83.3065 46.8319C83.1104 46.8319 82.9141 46.7586 82.7625 46.6112L81.396 45.2838C81.0867 44.9834 81.0796 44.489 81.38 44.1797C81.6805 43.8704 82.1749 43.8632 82.4842 44.1637L83.8506 45.4911ZM81.9847 48.0365C82.2896 48.3414 82.2896 48.8358 81.9847 49.1408C81.8323 49.2933 81.6324 49.3694 81.4327 49.3694C81.2328 49.3694 81.033 49.2933 80.8804 49.1408L78.8895 47.1497C78.5846 46.8448 78.5846 46.3504 78.8895 46.0456C79.1943 45.7407 79.6887 45.7407 79.9937 46.0456L81.9847 48.0365Z" fill="#4646AF"/>
<defs>
<filter id="filter0_f_1_4280" x="56.5778" y="56.1953" width="26.7888" height="32.2704" filterUnits="userSpaceOnUse" color-interpolation-filters="sRGB">
<feFlood flood-opacity="0" result="BackgroundImageFix"/>
<feBlend mode="normal" in="SourceGraphic" in2="BackgroundImageFix" result="shape"/>
<feGaussianBlur stdDeviation="1.18891" result="effect1_foregroundBlur_1_4280"/>
</filter>
<filter id="filter1_f_1_4280" x="60.1078" y="56.1971" width="20.3766" height="29.063" filterUnits="userSpaceOnUse" color-interpolation-filters="sRGB">
<feFlood flood-opacity="0" result="BackgroundImageFix"/>
<feBlend mode="normal" in="SourceGraphic" in2="BackgroundImageFix" result="shape"/>
<feGaussianBlur stdDeviation="1.98152" result="effect1_foregroundBlur_1_4280"/>
</filter>
<filter id="filter2_f_1_4280" x="67.2249" y="61.6214" width="8.28892" height="15.5746" filterUnits="userSpaceOnUse" color-interpolation-filters="sRGB">
<feFlood flood-opacity="0" result="BackgroundImageFix"/>
<feBlend mode="normal" in="SourceGraphic" in2="BackgroundImageFix" result="shape"/>
<feGaussianBlur stdDeviation="0.792608" result="effect1_foregroundBlur_1_4280"/>
</filter>
<filter id="filter3_biiii_1_4280" x="33" y="33" width="62" height="62" filterUnits="userSpaceOnUse" color-interpolation-filters="sRGB">
<feFlood flood-opacity="0" result="BackgroundImageFix"/>
<feGaussianBlur in="BackgroundImageFix" stdDeviation="2"/>
<feComposite in2="SourceAlpha" operator="in" result="effect1_backgroundBlur_1_4280"/>
<feBlend mode="normal" in="SourceGraphic" in2="effect1_backgroundBlur_1_4280" result="shape"/>
<feColorMatrix in="SourceAlpha" type="matrix" values="0 0 0 0 0 0 0 0 0 0 0 0 0 0 0 0 0 0 127 0" result="hardAlpha"/>
<feOffset dy="1"/>
<feGaussianBlur stdDeviation="2"/>
<feComposite in2="hardAlpha" operator="arithmetic" k2="-1" k3="1"/>
<feColorMatrix type="matrix" values="0 0 0 0 1 0 0 0 0 1 0 0 0 0 1 0 0 0 0.3 0"/>
<feBlend mode="normal" in2="shape" result="effect2_innerShadow_1_4280"/>
<feColorMatrix in="SourceAlpha" type="matrix" values="0 0 0 0 0 0 0 0 0 0 0 0 0 0 0 0 0 0 127 0" result="hardAlpha"/>
<feOffset dy="-1"/>
<feGaussianBlur stdDeviation="2"/>
<feComposite in2="hardAlpha" operator="arithmetic" k2="-1" k3="1"/>
<feColorMatrix type="matrix" values="0 0 0 0 1 0 0 0 0 1 0 0 0 0 1 0 0 0 0.5 0"/>
<feBlend mode="normal" in2="effect2_innerShadow_1_4280" result="effect3_innerShadow_1_4280"/>
<feColorMatrix in="SourceAlpha" type="matrix" values="0 0 0 0 0 0 0 0 0 0 0 0 0 0 0 0 0 0 127 0" result="hardAlpha"/>
<feOffset dy="1"/>
<feGaussianBlur stdDeviation="22"/>
<feComposite in2="hardAlpha" operator="arithmetic" k2="-1" k3="1"/>
<feColorMatrix type="matrix" values="0 0 0 0 1 0 0 0 0 1 0 0 0 0 1 0 0 0 0.45 0"/>
<feBlend mode="normal" in2="effect3_innerShadow_1_4280" result="effect4_innerShadow_1_4280"/>
<feColorMatrix in="SourceAlpha" type="matrix" values="0 0 0 0 0 0 0 0 0 0 0 0 0 0 0 0 0 0 127 0" result="hardAlpha"/>
<feOffset dx="1" dy="1"/>
<feGaussianBlur stdDeviation="1"/>
<feComposite in2="hardAlpha" operator="arithmetic" k2="-1" k3="1"/>
<feColorMatrix type="matrix" values="0 0 0 0 1 0 0 0 0 1 0 0 0 0 1 0 0 0 1 0"/>
<feBlend mode="normal" in2="effect4_innerShadow_1_4280" result="effect5_innerShadow_1_4280"/>
</filter>
<filter id="filter4_f_1_4280" x="60" y="66" width="32" height="31" filterUnits="userSpaceOnUse" color-interpolation-filters="sRGB">
<feFlood flood-opacity="0" result="BackgroundImageFix"/>
<feBlend mode="normal" in="SourceGraphic" in2="BackgroundImageFix" result="shape"/>
<feGaussianBlur stdDeviation="2" result="effect1_foregroundBlur_1_4280"/>
</filter>
<filter id="filter5_bii_1_4280" x="62" y="70" width="28" height="27" filterUnits="userSpaceOnUse" color-interpolation-filters="sRGB">
<feFlood flood-opacity="0" result="BackgroundImageFix"/>
<feGaussianBlur in="BackgroundImageFix" stdDeviation="1"/>
<feComposite in2="SourceAlpha" operator="in" result="effect1_backgroundBlur_1_4280"/>
<feBlend mode="normal" in="SourceGraphic" in2="effect1_backgroundBlur_1_4280" result="shape"/>
<feColorMatrix in="SourceAlpha" type="matrix" values="0 0 0 0 0 0 0 0 0 0 0 0 0 0 0 0 0 0 127 0" result="hardAlpha"/>
<feOffset dy="1.25404"/>
<feGaussianBlur stdDeviation="2.50808"/>
<feComposite in2="hardAlpha" operator="arithmetic" k2="-1" k3="1"/>
<feColorMatrix type="matrix" values="0 0 0 0 1 0 0 0 0 1 0 0 0 0 1 0 0 0 0.3 0"/>
<feBlend mode="normal" in2="shape" result="effect2_innerShadow_1_4280"/>
<feColorMatrix in="SourceAlpha" type="matrix" values="0 0 0 0 0 0 0 0 0 0 0 0 0 0 0 0 0 0 127 0" result="hardAlpha"/>
<feOffset dy="1.25404"/>
<feGaussianBlur stdDeviation="0.627019"/>
<feComposite in2="hardAlpha" operator="arithmetic" k2="-1" k3="1"/>
<feColorMatrix type="matrix" values="0 0 0 0 1 0 0 0 0 1 0 0 0 0 1 0 0 0 0.95 0"/>
<feBlend mode="normal" in2="effect2_innerShadow_1_4280" result="effect3_innerShadow_1_4280"/>
</filter>
<filter id="filter6_f_1_4280" x="76.5664" y="17.7637" width="30" height="34" filterUnits="userSpaceOnUse" color-interpolation-filters="sRGB">
<feFlood flood-opacity="0" result="BackgroundImageFix"/>
<feBlend mode="normal" in="SourceGraphic" in2="BackgroundImageFix" result="shape"/>
<feGaussianBlur stdDeviation="4" result="effect1_foregroundBlur_1_4280"/>
</filter>
<filter id="filter7_f_1_4280" x="70.6909" y="21.8699" width="30.1438" height="35.6981" filterUnits="userSpaceOnUse" color-interpolation-filters="sRGB">
<feFlood flood-opacity="0" result="BackgroundImageFix"/>
<feBlend mode="normal" in="SourceGraphic" in2="BackgroundImageFix" result="shape"/>
<feGaussianBlur stdDeviation="3" result="effect1_foregroundBlur_1_4280"/>
</filter>
<filter id="filter8_f_1_4280" x="86.5582" y="28.14" width="10.4927" height="11.02" filterUnits="userSpaceOnUse" color-interpolation-filters="sRGB">
<feFlood flood-opacity="0" result="BackgroundImageFix"/>
<feBlend mode="normal" in="SourceGraphic" in2="BackgroundImageFix" result="shape"/>
<feGaussianBlur stdDeviation="0.5" result="effect1_foregroundBlur_1_4280"/>
</filter>
<linearGradient id="paint0_linear_1_4280" x1="101.23" y1="28.0008" x2="76.6156" y2="42.6673" gradientUnits="userSpaceOnUse">
<stop offset="0.0941878" stop-color="#FFE5DC"/>
<stop offset="0.230705" stop-color="#FFFFE7" stop-opacity="0"/>
</linearGradient>
<linearGradient id="paint1_linear_1_4280" x1="95.2281" y1="35.3274" x2="75.6511" y2="32.0258" gradientUnits="userSpaceOnUse">
<stop stop-color="#FFFFE6"/>
<stop offset="0.360807" stop-color="#D5FFFF"/>
<stop offset="0.977083" stop-color="#D5FFFF" stop-opacity="0"/>
</linearGradient>
<linearGradient id="paint2_linear_1_4280" x1="95.9664" y1="38.4707" x2="76.8075" y2="49.9985" gradientUnits="userSpaceOnUse">
<stop offset="0.0153056" stop-color="#D4FFE7"/>
<stop offset="0.312156" stop-color="#D5FFFF" stop-opacity="0"/>
</linearGradient>
<linearGradient id="paint3_linear_1_4280" x1="58" y1="82" x2="58" y2="83" gradientUnits="userSpaceOnUse">
<stop stop-color="#E4EBFF"/>
<stop offset="0.60706" stop-color="#FFE2D9"/>
</linearGradient>
</defs>
</svg>
